G75*
G70*
%OFA0B0*%
%FSLAX24Y24*%
%IPPOS*%
%LPD*%
%AMOC8*
5,1,8,0,0,1.08239X$1,22.5*
%
%ADD10C,0.0600*%
%ADD11C,0.0820*%
%ADD12C,0.0680*%
%ADD13C,0.0680*%
%ADD14OC8,0.0680*%
%ADD15C,0.0730*%
%ADD16C,0.0830*%
%ADD17C,0.0480*%
D10*
X002109Y003347D02*
X002109Y003867D01*
X003109Y003867D02*
X003109Y003347D01*
X004109Y003347D02*
X004109Y003867D01*
X005109Y003867D02*
X005109Y003347D01*
X006109Y003347D02*
X006109Y003867D01*
X007109Y003867D02*
X007109Y003347D01*
X008109Y003347D02*
X008109Y003867D01*
X009109Y003867D02*
X009109Y003347D01*
X010109Y003347D02*
X010109Y003867D01*
X011109Y003867D02*
X011109Y003347D01*
X012109Y003347D02*
X012109Y003867D01*
X013109Y003867D02*
X013109Y003347D01*
X014109Y003347D02*
X014109Y003867D01*
X015109Y003867D02*
X015109Y003347D01*
X015109Y006347D02*
X015109Y006867D01*
X014109Y006867D02*
X014109Y006347D01*
X013109Y006347D02*
X013109Y006867D01*
X012109Y006867D02*
X012109Y006347D01*
X011109Y006347D02*
X011109Y006867D01*
X010109Y006867D02*
X010109Y006347D01*
X009109Y006347D02*
X009109Y006867D01*
X008109Y006867D02*
X008109Y006347D01*
X007109Y006347D02*
X007109Y006867D01*
X006109Y006867D02*
X006109Y006347D01*
X005109Y006347D02*
X005109Y006867D01*
X004109Y006867D02*
X004109Y006347D01*
X003109Y006347D02*
X003109Y006867D01*
X002109Y006867D02*
X002109Y006347D01*
D11*
X013109Y001107D03*
X014109Y001107D03*
X015109Y001107D03*
X023109Y001107D03*
X026109Y001107D03*
X023109Y005107D03*
X022109Y005107D03*
X022609Y005857D03*
D12*
X023109Y009307D02*
X023109Y009907D01*
X022109Y009907D02*
X022109Y009307D01*
X020609Y009307D02*
X020609Y009907D01*
X019609Y009907D02*
X019609Y009307D01*
X018609Y009307D02*
X018609Y009907D01*
X017609Y009907D02*
X017609Y009307D01*
X016609Y009307D02*
X016609Y009907D01*
X015609Y009907D02*
X015609Y009307D01*
X014609Y009307D02*
X014609Y009907D01*
X013609Y009907D02*
X013609Y009307D01*
X012609Y009307D02*
X012609Y009907D01*
X011609Y009907D02*
X011609Y009307D01*
X010609Y009307D02*
X010609Y009907D01*
X009609Y009907D02*
X009609Y009307D01*
X008609Y009307D02*
X008609Y009907D01*
X007609Y009907D02*
X007609Y009307D01*
X006609Y009307D02*
X006609Y009907D01*
X005609Y009907D02*
X005609Y009307D01*
X004609Y009307D02*
X004609Y009907D01*
X003609Y009907D02*
X003609Y009307D01*
X002609Y009307D02*
X002609Y009907D01*
X001609Y009907D02*
X001609Y009307D01*
X024109Y009307D02*
X024109Y009907D01*
X025609Y009907D02*
X025609Y009307D01*
X026609Y009307D02*
X026609Y009907D01*
D13*
X018109Y004607D03*
D14*
X019109Y004607D03*
X020109Y004607D03*
X020109Y005607D03*
X019109Y005607D03*
X018109Y005607D03*
X025609Y005107D03*
D15*
X003124Y001107D03*
X005093Y001107D03*
X008624Y001107D03*
X010593Y001107D03*
D16*
X016209Y001107D03*
X019909Y001107D03*
D17*
X017669Y001667D03*
X018069Y002067D03*
X015429Y002467D03*
X015029Y001827D03*
X013669Y001827D03*
X011749Y002867D03*
X010629Y002227D03*
X009989Y001427D03*
X008629Y004227D03*
X009589Y004707D03*
X007909Y004947D03*
X008709Y005907D03*
X010069Y005747D03*
X010709Y005907D03*
X013029Y004947D03*
X014549Y004947D03*
X014869Y004547D03*
X016869Y005347D03*
X017189Y004947D03*
X016229Y006387D03*
X016229Y006867D03*
X017589Y007507D03*
X017269Y007907D03*
X015909Y008227D03*
X014389Y008387D03*
X013989Y008787D03*
X011669Y007587D03*
X010789Y007347D03*
X012629Y007187D03*
X009269Y008307D03*
X007269Y008547D03*
X005109Y008307D03*
X004709Y007747D03*
X011509Y004307D03*
X017269Y003347D03*
X020789Y005107D03*
X018469Y007107D03*
X020149Y008547D03*
X019109Y008947D03*
X023989Y008707D03*
M02*
