%
M48
M72
T01C0.0240
T02C0.0276
T03C0.0315
T04C0.0320
T05C0.0354
T06C0.0400
%
T01
X9989Y1427
X10629Y2227
X11749Y2867
X13669Y1827
X15029Y1827
X15429Y2467
X17269Y3347
X18069Y2067
X17669Y1667
X11509Y4307
X13029Y4947
X14549Y4947
X14869Y4547
X16869Y5347
X17189Y4947
X16229Y6387
X16229Y6867
X17589Y7507
X17269Y7907
X15909Y8227
X14389Y8387
X13989Y8787
X11669Y7587
X10789Y7347
X12629Y7187
X10709Y5907
X10069Y5747
X8709Y5907
X7909Y4947
X9589Y4707
X8629Y4227
X4709Y7747
X5109Y8307
X7269Y8547
X9269Y8307
X18469Y7107
X20149Y8547
X19109Y8947
X23989Y8707
X20789Y5107
T02
X3124Y1107
X5093Y1107
X8624Y1107
X10593Y1107
T03
X13109Y1107
X14109Y1107
X15109Y1107
T04
X15109Y3607
X14109Y3607
X13109Y3607
X12109Y3607
X11109Y3607
X10109Y3607
X9109Y3607
X8109Y3607
X7109Y3607
X6109Y3607
X5109Y3607
X4109Y3607
X3109Y3607
X2109Y3607
X2109Y6607
X3109Y6607
X4109Y6607
X5109Y6607
X6109Y6607
X7109Y6607
X8109Y6607
X9109Y6607
X10109Y6607
X11109Y6607
X12109Y6607
X13109Y6607
X14109Y6607
X15109Y6607
X22109Y5107
X23109Y5107
X22609Y5857
T05
X23109Y1107
X26109Y1107
X19909Y1107
X16209Y1107
T06
X18109Y4607
X19109Y4607
X20109Y4607
X20109Y5607
X19109Y5607
X18109Y5607
X25609Y5107
X25609Y9607
X26609Y9607
X24109Y9607
X23109Y9607
X22109Y9607
X20609Y9607
X19609Y9607
X18609Y9607
X17609Y9607
X16609Y9607
X15609Y9607
X14609Y9607
X13609Y9607
X12609Y9607
X11609Y9607
X10609Y9607
X9609Y9607
X8609Y9607
X7609Y9607
X6609Y9607
X5609Y9607
X4609Y9607
X3609Y9607
X2609Y9607
X1609Y9607
M30
