G75*
G70*
%OFA0B0*%
%FSLAX24Y24*%
%IPPOS*%
%LPD*%
%AMOC8*
5,1,8,0,0,1.08239X$1,22.5*
%
%ADD10C,0.0060*%
%ADD11C,0.0080*%
%ADD12C,0.0050*%
%ADD13C,0.0010*%
D10*
X001309Y004007D02*
X015909Y004007D01*
X015909Y006207D01*
X001309Y006207D01*
X001309Y005357D01*
X001339Y005355D01*
X001369Y005350D01*
X001398Y005341D01*
X001425Y005328D01*
X001451Y005313D01*
X001475Y005294D01*
X001496Y005273D01*
X001515Y005249D01*
X001530Y005223D01*
X001543Y005196D01*
X001552Y005167D01*
X001557Y005137D01*
X001559Y005107D01*
X001557Y005077D01*
X001552Y005047D01*
X001543Y005018D01*
X001530Y004991D01*
X001515Y004965D01*
X001496Y004941D01*
X001475Y004920D01*
X001451Y004901D01*
X001425Y004886D01*
X001398Y004873D01*
X001369Y004864D01*
X001339Y004859D01*
X001309Y004857D01*
X001309Y004007D01*
X001359Y009107D02*
X001859Y009107D01*
X002109Y009357D01*
X002359Y009107D01*
X002859Y009107D01*
X003109Y009357D01*
X003109Y009857D01*
X002859Y010107D01*
X002359Y010107D01*
X002109Y009857D01*
X002109Y009357D01*
X001359Y009107D02*
X001109Y009357D01*
X001109Y009857D01*
X001359Y010107D01*
X001859Y010107D01*
X002109Y009857D01*
X003109Y009857D02*
X003359Y010107D01*
X003859Y010107D01*
X004109Y009857D01*
X004359Y010107D01*
X004859Y010107D01*
X005109Y009857D01*
X005359Y010107D01*
X005859Y010107D01*
X006109Y009857D01*
X006109Y009357D01*
X005859Y009107D01*
X005359Y009107D01*
X005109Y009357D01*
X004859Y009107D01*
X004359Y009107D01*
X004109Y009357D01*
X003859Y009107D01*
X003359Y009107D01*
X003109Y009357D01*
X004109Y009357D02*
X004109Y009857D01*
X005109Y009857D02*
X005109Y009357D01*
X006109Y009357D02*
X006359Y009107D01*
X006859Y009107D01*
X007109Y009357D01*
X007359Y009107D01*
X007859Y009107D01*
X008109Y009357D01*
X008359Y009107D01*
X008859Y009107D01*
X009109Y009357D01*
X009109Y009857D01*
X008859Y010107D01*
X008359Y010107D01*
X008109Y009857D01*
X008109Y009357D01*
X007109Y009357D02*
X007109Y009857D01*
X007359Y010107D01*
X007859Y010107D01*
X008109Y009857D01*
X007109Y009857D02*
X006859Y010107D01*
X006359Y010107D01*
X006109Y009857D01*
X009109Y009857D02*
X009359Y010107D01*
X009859Y010107D01*
X010109Y009857D01*
X010359Y010107D01*
X010859Y010107D01*
X011109Y009857D01*
X011359Y010107D01*
X011859Y010107D01*
X012109Y009857D01*
X012109Y009357D01*
X011859Y009107D01*
X011359Y009107D01*
X011109Y009357D01*
X010859Y009107D01*
X010359Y009107D01*
X010109Y009357D01*
X009859Y009107D01*
X009359Y009107D01*
X009109Y009357D01*
X010109Y009357D02*
X010109Y009857D01*
X011109Y009857D02*
X011109Y009357D01*
X012109Y009357D02*
X012359Y009107D01*
X012859Y009107D01*
X013109Y009357D01*
X013359Y009107D01*
X013859Y009107D01*
X014109Y009357D01*
X014359Y009107D01*
X014859Y009107D01*
X015109Y009357D01*
X015109Y009857D01*
X014859Y010107D01*
X014359Y010107D01*
X014109Y009857D01*
X014109Y009357D01*
X014109Y009857D02*
X013859Y010107D01*
X013359Y010107D01*
X013109Y009857D01*
X013109Y009357D01*
X013109Y009857D02*
X012859Y010107D01*
X012359Y010107D01*
X012109Y009857D01*
X015109Y009857D02*
X015359Y010107D01*
X015859Y010107D01*
X016109Y009857D01*
X016359Y010107D01*
X016859Y010107D01*
X017109Y009857D01*
X017359Y010107D01*
X017859Y010107D01*
X018109Y009857D01*
X018109Y009357D01*
X017859Y009107D01*
X017359Y009107D01*
X017109Y009357D01*
X016859Y009107D01*
X016359Y009107D01*
X016109Y009357D01*
X015859Y009107D01*
X015359Y009107D01*
X015109Y009357D01*
X016109Y009357D02*
X016109Y009857D01*
X017109Y009857D02*
X017109Y009357D01*
X018109Y009357D02*
X018359Y009107D01*
X018859Y009107D01*
X019109Y009357D01*
X019359Y009107D01*
X019859Y009107D01*
X020109Y009357D01*
X020359Y009107D01*
X020859Y009107D01*
X021109Y009357D01*
X021109Y009857D01*
X020859Y010107D01*
X020359Y010107D01*
X020109Y009857D01*
X020109Y009357D01*
X019109Y009357D02*
X019109Y009857D01*
X019359Y010107D01*
X019859Y010107D01*
X020109Y009857D01*
X019109Y009857D02*
X018859Y010107D01*
X018359Y010107D01*
X018109Y009857D01*
X021609Y009857D02*
X021609Y009357D01*
X021859Y009107D01*
X022359Y009107D01*
X022609Y009357D01*
X022859Y009107D01*
X023359Y009107D01*
X023609Y009357D01*
X023859Y009107D01*
X024359Y009107D01*
X024609Y009357D01*
X024609Y009857D01*
X024359Y010107D01*
X023859Y010107D01*
X023609Y009857D01*
X023609Y009357D01*
X023609Y009857D02*
X023359Y010107D01*
X022859Y010107D01*
X022609Y009857D01*
X022609Y009357D01*
X022609Y009857D02*
X022359Y010107D01*
X021859Y010107D01*
X021609Y009857D01*
X025109Y009857D02*
X025109Y009357D01*
X025359Y009107D01*
X025859Y009107D01*
X026109Y009357D01*
X026359Y009107D01*
X026859Y009107D01*
X027109Y009357D01*
X027109Y009857D01*
X026859Y010107D01*
X026359Y010107D01*
X026109Y009857D01*
X026109Y009357D01*
X026109Y009857D02*
X025859Y010107D01*
X025359Y010107D01*
X025109Y009857D01*
X020609Y005857D02*
X020359Y006107D01*
X019859Y006107D01*
X019609Y005857D01*
X019359Y006107D01*
X018859Y006107D01*
X018609Y005857D01*
X018359Y006107D01*
X017859Y006107D01*
X017609Y005857D01*
X017609Y004357D01*
X017859Y004107D01*
X018359Y004107D01*
X018609Y004357D01*
X018859Y004107D01*
X019359Y004107D01*
X019609Y004357D01*
X019859Y004107D01*
X020359Y004107D01*
X020609Y004357D01*
X020609Y005857D01*
X025109Y005357D02*
X025109Y004857D01*
X025359Y004607D01*
X025859Y004607D01*
X026109Y004857D01*
X026109Y005357D01*
X025859Y005607D01*
X025359Y005607D01*
X025109Y005357D01*
X025063Y003078D02*
X025063Y002437D01*
X025276Y002437D02*
X024849Y002437D01*
X024632Y002544D02*
X024525Y002437D01*
X024312Y002437D01*
X024205Y002544D01*
X024632Y002971D01*
X024632Y002544D01*
X024205Y002544D02*
X024205Y002971D01*
X024312Y003078D01*
X024525Y003078D01*
X024632Y002971D01*
X024849Y002864D02*
X025063Y003078D01*
X025494Y002971D02*
X025601Y003078D01*
X025814Y003078D01*
X025921Y002971D01*
X025921Y002864D01*
X025494Y002437D01*
X025921Y002437D01*
X023987Y002437D02*
X023560Y002437D01*
X023987Y002864D01*
X023987Y002971D01*
X023881Y003078D01*
X023667Y003078D01*
X023560Y002971D01*
X022699Y002864D02*
X022379Y002651D01*
X022699Y002437D01*
X022379Y002437D02*
X022379Y003078D01*
X022161Y002758D02*
X022054Y002864D01*
X021841Y002864D01*
X022161Y002758D02*
X022161Y002437D01*
X021841Y002437D01*
X021734Y002544D01*
X021841Y002651D01*
X022161Y002651D01*
X021517Y002758D02*
X021517Y002437D01*
X021090Y002437D02*
X021090Y002864D01*
X021410Y002864D01*
X021517Y002758D01*
X020872Y002864D02*
X020552Y002864D01*
X020445Y002758D01*
X020552Y002651D01*
X020765Y002651D01*
X020872Y002544D01*
X020765Y002437D01*
X020445Y002437D01*
X020228Y002437D02*
X020228Y002864D01*
X019801Y002864D02*
X019801Y002544D01*
X019907Y002437D01*
X020228Y002437D01*
X019583Y002437D02*
X019370Y002651D01*
X019476Y002651D02*
X019156Y002651D01*
X019476Y002651D02*
X019583Y002758D01*
X019583Y002971D01*
X019476Y003078D01*
X019156Y003078D01*
X019156Y002437D01*
X023839Y001214D02*
X023952Y001328D01*
X023952Y000987D01*
X023839Y000987D02*
X024066Y000987D01*
X024207Y001044D02*
X024264Y000987D01*
X024377Y000987D01*
X024434Y001044D01*
X024434Y001271D01*
X024207Y001044D01*
X024207Y001271D01*
X024264Y001328D01*
X024377Y001328D01*
X024434Y001271D01*
X024575Y001328D02*
X024575Y000987D01*
X024575Y001101D02*
X024745Y001214D01*
X024575Y001101D02*
X024745Y000987D01*
D11*
X004109Y000857D02*
X004109Y001357D01*
X009609Y001357D02*
X009609Y000857D01*
X013209Y000407D02*
X013157Y000417D01*
X013106Y000431D01*
X013056Y000449D01*
X013008Y000470D01*
X012961Y000495D01*
X012917Y000523D01*
X012874Y000555D01*
X012834Y000589D01*
X012797Y000627D01*
X012763Y000667D01*
X012731Y000709D01*
X012703Y000754D01*
X012679Y000801D01*
X012658Y000849D01*
X012640Y000899D01*
X012627Y000950D01*
X012617Y001002D01*
X012611Y001054D01*
X012609Y001107D01*
X012611Y001160D01*
X012617Y001212D01*
X012627Y001264D01*
X012640Y001315D01*
X012658Y001365D01*
X012679Y001413D01*
X012703Y001460D01*
X012731Y001505D01*
X012763Y001547D01*
X012797Y001587D01*
X012834Y001625D01*
X012874Y001659D01*
X012917Y001691D01*
X012961Y001719D01*
X013008Y001744D01*
X013056Y001765D01*
X013106Y001783D01*
X013157Y001797D01*
X013209Y001807D01*
X015008Y001807D02*
X015060Y001797D01*
X015111Y001783D01*
X015161Y001765D01*
X015209Y001744D01*
X015256Y001719D01*
X015300Y001691D01*
X015343Y001659D01*
X015383Y001625D01*
X015420Y001587D01*
X015454Y001547D01*
X015486Y001505D01*
X015514Y001460D01*
X015538Y001413D01*
X015559Y001365D01*
X015577Y001315D01*
X015590Y001264D01*
X015600Y001212D01*
X015606Y001160D01*
X015608Y001107D01*
X015606Y001054D01*
X015600Y001002D01*
X015590Y000950D01*
X015577Y000899D01*
X015559Y000849D01*
X015538Y000801D01*
X015514Y000754D01*
X015486Y000709D01*
X015454Y000667D01*
X015420Y000627D01*
X015383Y000589D01*
X015343Y000555D01*
X015300Y000523D01*
X015256Y000495D01*
X015209Y000470D01*
X015161Y000449D01*
X015111Y000431D01*
X015060Y000417D01*
X015008Y000407D01*
X015009Y001807D02*
X014650Y001839D01*
X014289Y001855D01*
X013929Y001855D01*
X013568Y001839D01*
X013209Y001807D01*
X017109Y001107D02*
X018109Y001107D01*
X019109Y001107D01*
X018109Y001107D02*
X018109Y000857D01*
X018109Y001107D02*
X018109Y001357D01*
X023509Y001107D02*
X023609Y001107D01*
X023609Y001407D01*
X025609Y001407D01*
X025609Y001107D01*
X025709Y001107D01*
X025609Y001107D02*
X025609Y000807D01*
X023609Y000807D01*
X023609Y001107D01*
X023433Y004457D02*
X021784Y004457D01*
X021721Y005007D02*
X021563Y005007D01*
X022496Y005007D02*
X022721Y005007D01*
X023496Y005007D02*
X023654Y005007D01*
X015009Y000407D02*
X014650Y000375D01*
X014289Y000359D01*
X013929Y000359D01*
X013568Y000375D01*
X013209Y000407D01*
D12*
X017884Y003482D02*
X018184Y003482D01*
X018034Y003482D02*
X018034Y003933D01*
X017884Y003783D01*
X020734Y005457D02*
X020809Y005382D01*
X020959Y005382D01*
X021034Y005457D01*
X021034Y005533D01*
X020959Y005608D01*
X020734Y005608D01*
X020734Y005457D01*
X020734Y005608D02*
X020884Y005758D01*
X021034Y005833D01*
D13*
X023464Y004440D02*
X023409Y004483D01*
X023445Y004532D01*
X023479Y004583D01*
X023508Y004637D01*
X023535Y004692D01*
X023559Y004748D01*
X023578Y004806D01*
X023595Y004865D01*
X023608Y004925D01*
X023617Y004985D01*
X023622Y005046D01*
X023624Y005108D01*
X023622Y005169D01*
X023617Y005230D01*
X023607Y005290D01*
X023594Y005350D01*
X023578Y005409D01*
X023558Y005467D01*
X023535Y005523D01*
X023508Y005578D01*
X023478Y005632D01*
X023445Y005683D01*
X023409Y005732D01*
X023369Y005779D01*
X023328Y005824D01*
X023283Y005866D01*
X023236Y005905D01*
X023187Y005941D01*
X023136Y005975D01*
X023082Y006005D01*
X023027Y006032D01*
X022971Y006055D01*
X022913Y006075D01*
X022933Y006142D01*
X022934Y006142D01*
X022995Y006121D01*
X023056Y006096D01*
X023115Y006067D01*
X023172Y006035D01*
X023226Y005999D01*
X023279Y005960D01*
X023329Y005918D01*
X023377Y005873D01*
X023422Y005826D01*
X023464Y005776D01*
X023502Y005723D01*
X023538Y005668D01*
X023570Y005611D01*
X023599Y005552D01*
X023624Y005492D01*
X023645Y005430D01*
X023662Y005367D01*
X023676Y005303D01*
X023686Y005238D01*
X023692Y005173D01*
X023694Y005107D01*
X023692Y005042D01*
X023686Y004977D01*
X023676Y004912D01*
X023663Y004848D01*
X023645Y004785D01*
X023624Y004723D01*
X023599Y004663D01*
X023570Y004604D01*
X023538Y004547D01*
X023503Y004492D01*
X023464Y004439D01*
X023457Y004445D01*
X023495Y004497D01*
X023531Y004552D01*
X023562Y004608D01*
X023591Y004667D01*
X023616Y004727D01*
X023637Y004788D01*
X023654Y004850D01*
X023668Y004914D01*
X023677Y004978D01*
X023683Y005043D01*
X023685Y005107D01*
X023683Y005172D01*
X023677Y005237D01*
X023667Y005301D01*
X023654Y005365D01*
X023636Y005427D01*
X023615Y005488D01*
X023590Y005548D01*
X023562Y005607D01*
X023530Y005663D01*
X023495Y005718D01*
X023457Y005770D01*
X023415Y005820D01*
X023371Y005867D01*
X023323Y005912D01*
X023274Y005953D01*
X023221Y005992D01*
X023167Y006027D01*
X023110Y006059D01*
X023052Y006087D01*
X022992Y006112D01*
X022931Y006134D01*
X022928Y006125D01*
X022989Y006104D01*
X023049Y006079D01*
X023106Y006051D01*
X023162Y006019D01*
X023216Y005984D01*
X023268Y005946D01*
X023317Y005905D01*
X023364Y005861D01*
X023408Y005814D01*
X023449Y005764D01*
X023488Y005713D01*
X023522Y005659D01*
X023554Y005602D01*
X023582Y005545D01*
X023607Y005485D01*
X023628Y005424D01*
X023645Y005362D01*
X023658Y005299D01*
X023668Y005236D01*
X023674Y005172D01*
X023676Y005108D01*
X023674Y005043D01*
X023668Y004979D01*
X023659Y004916D01*
X023645Y004853D01*
X023628Y004791D01*
X023607Y004730D01*
X023583Y004670D01*
X023554Y004612D01*
X023523Y004556D01*
X023488Y004502D01*
X023450Y004450D01*
X023443Y004456D01*
X023481Y004507D01*
X023515Y004561D01*
X023547Y004617D01*
X023574Y004674D01*
X023599Y004733D01*
X023619Y004793D01*
X023636Y004855D01*
X023650Y004917D01*
X023659Y004980D01*
X023665Y005044D01*
X023667Y005108D01*
X023665Y005171D01*
X023659Y005235D01*
X023650Y005298D01*
X023636Y005360D01*
X023619Y005422D01*
X023598Y005482D01*
X023574Y005541D01*
X023546Y005598D01*
X023515Y005654D01*
X023480Y005707D01*
X023442Y005759D01*
X023402Y005808D01*
X023358Y005854D01*
X023311Y005898D01*
X023263Y005939D01*
X023211Y005977D01*
X023158Y006012D01*
X023102Y006043D01*
X023045Y006071D01*
X022986Y006096D01*
X022926Y006116D01*
X022923Y006108D01*
X022983Y006087D01*
X023041Y006063D01*
X023098Y006035D01*
X023153Y006004D01*
X023206Y005969D01*
X023257Y005932D01*
X023306Y005891D01*
X023352Y005848D01*
X023395Y005802D01*
X023435Y005753D01*
X023473Y005702D01*
X023507Y005649D01*
X023538Y005594D01*
X023566Y005537D01*
X023590Y005479D01*
X023611Y005419D01*
X023628Y005358D01*
X023641Y005296D01*
X023650Y005234D01*
X023656Y005171D01*
X023658Y005108D01*
X023656Y005044D01*
X023650Y004981D01*
X023641Y004919D01*
X023628Y004857D01*
X023611Y004796D01*
X023590Y004736D01*
X023566Y004678D01*
X023539Y004621D01*
X023508Y004566D01*
X023473Y004513D01*
X023436Y004462D01*
X023429Y004467D01*
X023466Y004518D01*
X023500Y004570D01*
X023531Y004625D01*
X023558Y004681D01*
X023582Y004739D01*
X023602Y004799D01*
X023619Y004859D01*
X023632Y004920D01*
X023642Y004982D01*
X023647Y005045D01*
X023649Y005108D01*
X023647Y005170D01*
X023641Y005233D01*
X023632Y005295D01*
X023619Y005356D01*
X023602Y005416D01*
X023581Y005476D01*
X023558Y005534D01*
X023530Y005590D01*
X023499Y005645D01*
X023465Y005697D01*
X023428Y005748D01*
X023388Y005796D01*
X023345Y005842D01*
X023300Y005885D01*
X023251Y005925D01*
X023201Y005962D01*
X023148Y005996D01*
X023094Y006027D01*
X023038Y006055D01*
X022980Y006079D01*
X022920Y006099D01*
X022918Y006091D01*
X022976Y006070D01*
X023034Y006046D01*
X023090Y006019D01*
X023144Y005988D01*
X023196Y005955D01*
X023246Y005918D01*
X023294Y005878D01*
X023339Y005835D01*
X023381Y005790D01*
X023421Y005742D01*
X023458Y005692D01*
X023492Y005640D01*
X023522Y005586D01*
X023549Y005530D01*
X023573Y005472D01*
X023593Y005414D01*
X023610Y005354D01*
X023623Y005293D01*
X023632Y005232D01*
X023638Y005170D01*
X023640Y005108D01*
X023638Y005045D01*
X023633Y004984D01*
X023623Y004922D01*
X023610Y004861D01*
X023594Y004801D01*
X023573Y004743D01*
X023550Y004685D01*
X023523Y004629D01*
X023492Y004575D01*
X023459Y004523D01*
X023422Y004473D01*
X023415Y004478D01*
X023451Y004528D01*
X023484Y004580D01*
X023515Y004633D01*
X023542Y004689D01*
X023565Y004746D01*
X023585Y004804D01*
X023602Y004863D01*
X023614Y004924D01*
X023624Y004985D01*
X023629Y005046D01*
X023631Y005108D01*
X023629Y005169D01*
X023624Y005230D01*
X023614Y005291D01*
X023601Y005352D01*
X023585Y005411D01*
X023565Y005469D01*
X023541Y005526D01*
X023514Y005582D01*
X023484Y005635D01*
X023451Y005687D01*
X023414Y005737D01*
X023375Y005784D01*
X023332Y005829D01*
X023288Y005871D01*
X023240Y005911D01*
X023191Y005947D01*
X023139Y005981D01*
X023086Y006011D01*
X023030Y006038D01*
X022973Y006062D01*
X022915Y006082D01*
X022285Y006142D02*
X022305Y006075D01*
X022247Y006055D01*
X022191Y006032D01*
X022136Y006005D01*
X022083Y005975D01*
X022031Y005941D01*
X021982Y005905D01*
X021935Y005866D01*
X021891Y005824D01*
X021849Y005779D01*
X021809Y005732D01*
X021773Y005683D01*
X021740Y005632D01*
X021710Y005578D01*
X021683Y005523D01*
X021660Y005467D01*
X021640Y005409D01*
X021624Y005350D01*
X021611Y005290D01*
X021601Y005230D01*
X021596Y005169D01*
X021594Y005108D01*
X021596Y005046D01*
X021601Y004985D01*
X021610Y004925D01*
X021623Y004865D01*
X021640Y004806D01*
X021659Y004748D01*
X021683Y004692D01*
X021710Y004637D01*
X021739Y004583D01*
X021773Y004532D01*
X021809Y004483D01*
X021754Y004440D01*
X021754Y004439D01*
X021715Y004492D01*
X021680Y004547D01*
X021648Y004604D01*
X021619Y004663D01*
X021594Y004723D01*
X021573Y004785D01*
X021555Y004848D01*
X021542Y004912D01*
X021532Y004977D01*
X021526Y005042D01*
X021524Y005108D01*
X021526Y005173D01*
X021532Y005238D01*
X021542Y005303D01*
X021556Y005367D01*
X021573Y005430D01*
X021594Y005492D01*
X021619Y005552D01*
X021648Y005611D01*
X021680Y005668D01*
X021716Y005723D01*
X021754Y005776D01*
X021796Y005826D01*
X021841Y005873D01*
X021889Y005918D01*
X021939Y005960D01*
X021992Y005999D01*
X022046Y006035D01*
X022103Y006067D01*
X022162Y006096D01*
X022223Y006121D01*
X022284Y006142D01*
X022287Y006134D01*
X022226Y006112D01*
X022166Y006087D01*
X022108Y006059D01*
X022051Y006027D01*
X021997Y005992D01*
X021944Y005953D01*
X021895Y005912D01*
X021847Y005867D01*
X021803Y005820D01*
X021762Y005770D01*
X021723Y005718D01*
X021688Y005663D01*
X021656Y005607D01*
X021628Y005548D01*
X021603Y005488D01*
X021582Y005427D01*
X021564Y005365D01*
X021551Y005301D01*
X021541Y005237D01*
X021535Y005172D01*
X021533Y005108D01*
X021535Y005043D01*
X021541Y004978D01*
X021550Y004914D01*
X021564Y004850D01*
X021581Y004788D01*
X021602Y004727D01*
X021627Y004667D01*
X021656Y004608D01*
X021687Y004552D01*
X021722Y004497D01*
X021761Y004445D01*
X021768Y004450D01*
X021730Y004502D01*
X021695Y004556D01*
X021664Y004612D01*
X021635Y004670D01*
X021611Y004730D01*
X021590Y004791D01*
X021573Y004853D01*
X021559Y004916D01*
X021550Y004979D01*
X021544Y005043D01*
X021542Y005108D01*
X021544Y005172D01*
X021550Y005236D01*
X021560Y005299D01*
X021573Y005362D01*
X021590Y005424D01*
X021611Y005485D01*
X021636Y005545D01*
X021664Y005602D01*
X021696Y005659D01*
X021730Y005713D01*
X021769Y005764D01*
X021810Y005814D01*
X021854Y005861D01*
X021901Y005905D01*
X021950Y005946D01*
X022002Y005984D01*
X022056Y006019D01*
X022112Y006051D01*
X022169Y006079D01*
X022229Y006104D01*
X022290Y006125D01*
X022292Y006116D01*
X022232Y006096D01*
X022173Y006071D01*
X022116Y006043D01*
X022060Y006012D01*
X022007Y005977D01*
X021955Y005939D01*
X021907Y005898D01*
X021860Y005854D01*
X021816Y005808D01*
X021776Y005759D01*
X021738Y005707D01*
X021703Y005654D01*
X021672Y005598D01*
X021644Y005541D01*
X021620Y005482D01*
X021599Y005422D01*
X021582Y005360D01*
X021568Y005298D01*
X021559Y005235D01*
X021553Y005171D01*
X021551Y005108D01*
X021553Y005044D01*
X021559Y004980D01*
X021568Y004917D01*
X021581Y004855D01*
X021599Y004793D01*
X021619Y004733D01*
X021644Y004674D01*
X021671Y004617D01*
X021703Y004561D01*
X021737Y004507D01*
X021775Y004456D01*
X021782Y004462D01*
X021745Y004513D01*
X021710Y004566D01*
X021679Y004621D01*
X021652Y004678D01*
X021628Y004736D01*
X021607Y004796D01*
X021590Y004857D01*
X021577Y004919D01*
X021568Y004981D01*
X021562Y005044D01*
X021560Y005108D01*
X021562Y005171D01*
X021568Y005234D01*
X021577Y005296D01*
X021590Y005358D01*
X021607Y005419D01*
X021628Y005479D01*
X021652Y005537D01*
X021680Y005594D01*
X021711Y005649D01*
X021745Y005702D01*
X021783Y005753D01*
X021823Y005802D01*
X021866Y005848D01*
X021912Y005891D01*
X021961Y005932D01*
X022012Y005969D01*
X022065Y006004D01*
X022120Y006035D01*
X022177Y006063D01*
X022235Y006087D01*
X022295Y006108D01*
X022298Y006099D01*
X022238Y006079D01*
X022181Y006055D01*
X022124Y006027D01*
X022070Y005996D01*
X022017Y005962D01*
X021967Y005925D01*
X021918Y005885D01*
X021873Y005842D01*
X021830Y005796D01*
X021790Y005748D01*
X021753Y005697D01*
X021719Y005645D01*
X021688Y005590D01*
X021660Y005534D01*
X021637Y005476D01*
X021616Y005416D01*
X021599Y005356D01*
X021586Y005295D01*
X021577Y005233D01*
X021571Y005170D01*
X021569Y005108D01*
X021571Y005045D01*
X021576Y004982D01*
X021586Y004920D01*
X021599Y004859D01*
X021616Y004799D01*
X021636Y004739D01*
X021660Y004681D01*
X021687Y004625D01*
X021718Y004570D01*
X021752Y004518D01*
X021789Y004467D01*
X021796Y004473D01*
X021759Y004523D01*
X021726Y004575D01*
X021695Y004629D01*
X021668Y004685D01*
X021645Y004743D01*
X021624Y004801D01*
X021608Y004861D01*
X021595Y004922D01*
X021585Y004984D01*
X021580Y005045D01*
X021578Y005108D01*
X021580Y005170D01*
X021586Y005232D01*
X021595Y005293D01*
X021608Y005354D01*
X021625Y005414D01*
X021645Y005472D01*
X021669Y005530D01*
X021696Y005586D01*
X021726Y005640D01*
X021760Y005692D01*
X021797Y005742D01*
X021837Y005790D01*
X021879Y005835D01*
X021924Y005878D01*
X021972Y005918D01*
X022022Y005955D01*
X022074Y005988D01*
X022128Y006019D01*
X022184Y006046D01*
X022242Y006070D01*
X022300Y006091D01*
X022303Y006082D01*
X022245Y006062D01*
X022188Y006038D01*
X022133Y006011D01*
X022079Y005981D01*
X022027Y005947D01*
X021978Y005911D01*
X021930Y005871D01*
X021886Y005829D01*
X021843Y005784D01*
X021804Y005737D01*
X021768Y005687D01*
X021734Y005635D01*
X021704Y005582D01*
X021677Y005526D01*
X021653Y005469D01*
X021633Y005411D01*
X021617Y005352D01*
X021604Y005291D01*
X021594Y005231D01*
X021589Y005169D01*
X021587Y005108D01*
X021589Y005046D01*
X021594Y004985D01*
X021604Y004924D01*
X021616Y004863D01*
X021633Y004804D01*
X021653Y004746D01*
X021676Y004689D01*
X021703Y004633D01*
X021733Y004580D01*
X021767Y004528D01*
X021803Y004478D01*
M02*
