G75*
G70*
%OFA0B0*%
%FSLAX24Y24*%
%IPPOS*%
%LPD*%
%AMOC8*
5,1,8,0,0,1.08239X$1,22.5*
%
%ADD10C,0.0060*%
%ADD11R,0.0160X0.0280*%
%ADD12C,0.0020*%
%ADD13R,0.0500X0.0350*%
%ADD14C,0.0160*%
%ADD15C,0.0080*%
%ADD16C,0.0050*%
D10*
X001859Y003603D02*
X002359Y003603D01*
X002609Y003853D01*
X002859Y003603D01*
X003359Y003603D01*
X003609Y003853D01*
X003859Y003603D01*
X004359Y003603D01*
X004609Y003853D01*
X004609Y005353D01*
X004359Y005603D01*
X003859Y005603D01*
X003609Y005353D01*
X003359Y005603D01*
X002859Y005603D01*
X002609Y005353D01*
X002359Y005603D01*
X001859Y005603D01*
X001609Y005353D01*
X001609Y003853D01*
X001859Y003603D01*
X005309Y004503D02*
X019909Y004503D01*
X019909Y006703D01*
X005309Y006703D01*
X005309Y005853D01*
X005339Y005851D01*
X005369Y005846D01*
X005398Y005837D01*
X005425Y005824D01*
X005451Y005809D01*
X005475Y005790D01*
X005496Y005769D01*
X005515Y005745D01*
X005530Y005719D01*
X005543Y005692D01*
X005552Y005663D01*
X005557Y005633D01*
X005559Y005603D01*
X005557Y005573D01*
X005552Y005543D01*
X005543Y005514D01*
X005530Y005487D01*
X005515Y005461D01*
X005496Y005437D01*
X005475Y005416D01*
X005451Y005397D01*
X005425Y005382D01*
X005398Y005369D01*
X005369Y005360D01*
X005339Y005355D01*
X005309Y005353D01*
X005309Y004503D01*
X007609Y002853D02*
X007859Y003103D01*
X008359Y003103D01*
X008609Y002853D01*
X008859Y003103D01*
X009359Y003103D01*
X009609Y002853D01*
X009609Y002353D01*
X009359Y002103D01*
X008859Y002103D01*
X008609Y002353D01*
X008359Y002103D01*
X007859Y002103D01*
X007609Y002353D01*
X007609Y002853D01*
X008609Y002853D02*
X008609Y002353D01*
X010109Y002353D02*
X010359Y002103D01*
X010859Y002103D01*
X011109Y002353D01*
X011359Y002103D01*
X011859Y002103D01*
X012109Y002353D01*
X012359Y002103D01*
X012859Y002103D01*
X013109Y002353D01*
X013109Y002853D01*
X012859Y003103D01*
X012359Y003103D01*
X012109Y002853D01*
X012109Y002353D01*
X012109Y002853D02*
X011859Y003103D01*
X011359Y003103D01*
X011109Y002853D01*
X011109Y002353D01*
X011109Y002853D02*
X010859Y003103D01*
X010359Y003103D01*
X010109Y002853D01*
X010109Y002353D01*
X019609Y002353D02*
X019859Y002103D01*
X020359Y002103D01*
X020609Y002353D01*
X020609Y002853D01*
X020359Y003103D01*
X019859Y003103D01*
X019609Y002853D01*
X019609Y002353D01*
X022059Y003603D02*
X022059Y008503D01*
X022409Y008503D01*
X022409Y009103D01*
X022059Y009103D01*
X022059Y009853D01*
X026159Y009853D01*
X026159Y009103D01*
X025809Y009103D01*
X025809Y008503D01*
X026159Y008503D01*
X026159Y003603D01*
X022059Y003603D01*
X021359Y008103D02*
X020859Y008103D01*
X020609Y008353D01*
X020359Y008103D01*
X019859Y008103D01*
X019609Y008353D01*
X019359Y008103D01*
X018859Y008103D01*
X018609Y008353D01*
X018359Y008103D01*
X017859Y008103D01*
X017609Y008353D01*
X017359Y008103D01*
X016859Y008103D01*
X016609Y008353D01*
X016359Y008103D01*
X015859Y008103D01*
X015609Y008353D01*
X015359Y008103D01*
X014859Y008103D01*
X014609Y008353D01*
X014359Y008103D01*
X013859Y008103D01*
X013609Y008353D01*
X013359Y008103D01*
X012859Y008103D01*
X012609Y008353D01*
X012359Y008103D01*
X011859Y008103D01*
X011609Y008353D01*
X011359Y008103D01*
X010859Y008103D01*
X010609Y008353D01*
X010359Y008103D01*
X009859Y008103D01*
X009609Y008353D01*
X009359Y008103D01*
X008859Y008103D01*
X008609Y008353D01*
X008359Y008103D01*
X007859Y008103D01*
X007609Y008353D01*
X007359Y008103D01*
X006859Y008103D01*
X006609Y008353D01*
X006359Y008103D01*
X005859Y008103D01*
X005609Y008353D01*
X005359Y008103D01*
X004859Y008103D01*
X004609Y008353D01*
X004359Y008103D01*
X003859Y008103D01*
X003609Y008353D01*
X003359Y008103D01*
X002859Y008103D01*
X002609Y008353D01*
X002359Y008103D01*
X001859Y008103D01*
X001609Y008353D01*
X001609Y008853D01*
X001859Y009103D01*
X002359Y009103D01*
X002609Y008853D01*
X002859Y009103D01*
X003359Y009103D01*
X003609Y008853D01*
X003609Y008353D01*
X003609Y008853D02*
X003859Y009103D01*
X004359Y009103D01*
X004609Y008853D01*
X004859Y009103D01*
X005359Y009103D01*
X005609Y008853D01*
X005859Y009103D01*
X006359Y009103D01*
X006609Y008853D01*
X006609Y008353D01*
X006609Y008853D02*
X006859Y009103D01*
X007359Y009103D01*
X007609Y008853D01*
X007859Y009103D01*
X008359Y009103D01*
X008609Y008853D01*
X008859Y009103D01*
X009359Y009103D01*
X009609Y008853D01*
X009609Y008353D01*
X009609Y008853D02*
X009859Y009103D01*
X010359Y009103D01*
X010609Y008853D01*
X010859Y009103D01*
X011359Y009103D01*
X011609Y008853D01*
X011859Y009103D01*
X012359Y009103D01*
X012609Y008853D01*
X012609Y008353D01*
X012609Y008853D02*
X012859Y009103D01*
X013359Y009103D01*
X013609Y008853D01*
X013859Y009103D01*
X014359Y009103D01*
X014609Y008853D01*
X014859Y009103D01*
X015359Y009103D01*
X015609Y008853D01*
X015609Y008353D01*
X015609Y008853D02*
X015859Y009103D01*
X016359Y009103D01*
X016609Y008853D01*
X016859Y009103D01*
X017359Y009103D01*
X017609Y008853D01*
X017859Y009103D01*
X018359Y009103D01*
X018609Y008853D01*
X018609Y008353D01*
X017609Y008353D02*
X017609Y008853D01*
X018609Y008853D02*
X018859Y009103D01*
X019359Y009103D01*
X019609Y008853D01*
X019859Y009103D01*
X020359Y009103D01*
X020609Y008853D01*
X020859Y009103D01*
X021359Y009103D01*
X021609Y008853D01*
X021609Y008353D01*
X021359Y008103D01*
X020609Y008353D02*
X020609Y008853D01*
X019609Y008853D02*
X019609Y008353D01*
X016609Y008353D02*
X016609Y008853D01*
X014609Y008853D02*
X014609Y008353D01*
X013609Y008353D02*
X013609Y008853D01*
X011609Y008853D02*
X011609Y008353D01*
X010609Y008353D02*
X010609Y008853D01*
X008609Y008853D02*
X008609Y008353D01*
X007609Y008353D02*
X007609Y008853D01*
X005609Y008853D02*
X005609Y008353D01*
X004609Y008353D02*
X004609Y008853D01*
X002609Y008853D02*
X002609Y008353D01*
X019656Y011933D02*
X019656Y012573D01*
X019976Y012573D01*
X020083Y012466D01*
X020083Y012253D01*
X019976Y012146D01*
X019656Y012146D01*
X019870Y012146D02*
X020083Y011933D01*
X020301Y012039D02*
X020407Y011933D01*
X020728Y011933D01*
X020728Y012360D01*
X020945Y012253D02*
X021052Y012360D01*
X021372Y012360D01*
X021590Y012360D02*
X021910Y012360D01*
X022017Y012253D01*
X022017Y011933D01*
X022234Y012039D02*
X022341Y012146D01*
X022661Y012146D01*
X022661Y012253D02*
X022661Y011933D01*
X022341Y011933D01*
X022234Y012039D01*
X022554Y012360D02*
X022661Y012253D01*
X022554Y012360D02*
X022341Y012360D01*
X022879Y012573D02*
X022879Y011933D01*
X022879Y012146D02*
X023199Y012360D01*
X022879Y012146D02*
X023199Y011933D01*
X024060Y011933D02*
X024487Y012360D01*
X024487Y012466D01*
X024381Y012573D01*
X024167Y012573D01*
X024060Y012466D01*
X024060Y011933D02*
X024487Y011933D01*
X024705Y012039D02*
X025132Y012466D01*
X025132Y012039D01*
X025025Y011933D01*
X024812Y011933D01*
X024705Y012039D01*
X024705Y012466D01*
X024812Y012573D01*
X025025Y012573D01*
X025132Y012466D01*
X025349Y012360D02*
X025563Y012573D01*
X025563Y011933D01*
X025776Y011933D02*
X025349Y011933D01*
X025994Y011933D02*
X026421Y012360D01*
X026421Y012466D01*
X026314Y012573D01*
X026101Y012573D01*
X025994Y012466D01*
X025994Y011933D02*
X026421Y011933D01*
X021590Y011933D02*
X021590Y012360D01*
X021372Y012039D02*
X021265Y012146D01*
X021052Y012146D01*
X020945Y012253D01*
X020945Y011933D02*
X021265Y011933D01*
X021372Y012039D01*
X020301Y012039D02*
X020301Y012360D01*
X023399Y008503D02*
X023401Y008556D01*
X023407Y008609D01*
X023417Y008661D01*
X023431Y008712D01*
X023448Y008762D01*
X023469Y008811D01*
X023494Y008858D01*
X023522Y008903D01*
X023554Y008946D01*
X023589Y008986D01*
X023626Y009023D01*
X023666Y009058D01*
X023709Y009090D01*
X023754Y009118D01*
X023801Y009143D01*
X023850Y009164D01*
X023900Y009181D01*
X023951Y009195D01*
X024003Y009205D01*
X024056Y009211D01*
X024109Y009213D01*
X024162Y009211D01*
X024215Y009205D01*
X024267Y009195D01*
X024318Y009181D01*
X024368Y009164D01*
X024417Y009143D01*
X024464Y009118D01*
X024509Y009090D01*
X024552Y009058D01*
X024592Y009023D01*
X024629Y008986D01*
X024664Y008946D01*
X024696Y008903D01*
X024724Y008858D01*
X024749Y008811D01*
X024770Y008762D01*
X024787Y008712D01*
X024801Y008661D01*
X024811Y008609D01*
X024817Y008556D01*
X024819Y008503D01*
X024817Y008450D01*
X024811Y008397D01*
X024801Y008345D01*
X024787Y008294D01*
X024770Y008244D01*
X024749Y008195D01*
X024724Y008148D01*
X024696Y008103D01*
X024664Y008060D01*
X024629Y008020D01*
X024592Y007983D01*
X024552Y007948D01*
X024509Y007916D01*
X024464Y007888D01*
X024417Y007863D01*
X024368Y007842D01*
X024318Y007825D01*
X024267Y007811D01*
X024215Y007801D01*
X024162Y007795D01*
X024109Y007793D01*
X024056Y007795D01*
X024003Y007801D01*
X023951Y007811D01*
X023900Y007825D01*
X023850Y007842D01*
X023801Y007863D01*
X023754Y007888D01*
X023709Y007916D01*
X023666Y007948D01*
X023626Y007983D01*
X023589Y008020D01*
X023554Y008060D01*
X023522Y008103D01*
X023494Y008148D01*
X023469Y008195D01*
X023448Y008244D01*
X023431Y008294D01*
X023417Y008345D01*
X023407Y008397D01*
X023401Y008450D01*
X023399Y008503D01*
D11*
X015109Y002603D03*
D12*
X022309Y003853D02*
X022309Y007103D01*
X025909Y007103D01*
X025909Y003853D01*
X022309Y003853D01*
D13*
X023109Y003428D03*
X024109Y003428D03*
X025109Y003428D03*
D14*
X002109Y002615D02*
X002109Y002591D01*
X016609Y002615D02*
X016609Y002591D01*
X018109Y002615D02*
X018109Y002591D01*
D15*
X006008Y001903D02*
X006060Y001913D01*
X006111Y001927D01*
X006161Y001945D01*
X006209Y001966D01*
X006256Y001991D01*
X006300Y002019D01*
X006343Y002051D01*
X006383Y002085D01*
X006420Y002123D01*
X006454Y002163D01*
X006486Y002205D01*
X006514Y002250D01*
X006538Y002297D01*
X006559Y002345D01*
X006577Y002395D01*
X006590Y002446D01*
X006600Y002498D01*
X006606Y002550D01*
X006608Y002603D01*
X006606Y002656D01*
X006600Y002708D01*
X006590Y002760D01*
X006577Y002811D01*
X006559Y002861D01*
X006538Y002909D01*
X006514Y002956D01*
X006486Y003001D01*
X006454Y003043D01*
X006420Y003083D01*
X006383Y003121D01*
X006343Y003155D01*
X006300Y003187D01*
X006256Y003215D01*
X006209Y003240D01*
X006161Y003261D01*
X006111Y003279D01*
X006060Y003293D01*
X006008Y003303D01*
X004209Y003303D02*
X004157Y003293D01*
X004106Y003279D01*
X004056Y003261D01*
X004008Y003240D01*
X003961Y003215D01*
X003917Y003187D01*
X003874Y003155D01*
X003834Y003121D01*
X003797Y003083D01*
X003763Y003043D01*
X003731Y003001D01*
X003703Y002956D01*
X003679Y002909D01*
X003658Y002861D01*
X003640Y002811D01*
X003627Y002760D01*
X003617Y002708D01*
X003611Y002656D01*
X003609Y002603D01*
X003611Y002550D01*
X003617Y002498D01*
X003627Y002446D01*
X003640Y002395D01*
X003658Y002345D01*
X003679Y002297D01*
X003703Y002250D01*
X003731Y002205D01*
X003763Y002163D01*
X003797Y002123D01*
X003834Y002085D01*
X003874Y002051D01*
X003917Y002019D01*
X003961Y001991D01*
X004008Y001966D01*
X004056Y001945D01*
X004106Y001927D01*
X004157Y001913D01*
X004209Y001903D01*
X004209Y003303D02*
X004568Y003335D01*
X004929Y003351D01*
X005289Y003351D01*
X005650Y003335D01*
X006009Y003303D01*
X006009Y001903D02*
X005650Y001871D01*
X005289Y001855D01*
X004929Y001855D01*
X004568Y001871D01*
X004209Y001903D01*
D16*
X002184Y002978D02*
X001884Y002978D01*
X002034Y002978D02*
X002034Y003428D01*
X001884Y003278D01*
X004734Y004953D02*
X004809Y004878D01*
X004959Y004878D01*
X005034Y004953D01*
X005034Y005028D01*
X004959Y005103D01*
X004734Y005103D01*
X004734Y004953D01*
X004734Y005103D02*
X004884Y005253D01*
X005034Y005328D01*
M02*
