G75*
G70*
%OFA0B0*%
%FSLAX24Y24*%
%IPPOS*%
%LPD*%
%AMOC8*
5,1,8,0,0,1.08239X$1,22.5*
%
%ADD10C,0.0600*%
%ADD11C,0.0520*%
%ADD12C,0.0740*%
%ADD13C,0.0600*%
%ADD14OC8,0.0600*%
%ADD15C,0.0100*%
%ADD16C,0.0400*%
D10*
X008109Y002303D02*
X008109Y002903D01*
X009109Y002903D02*
X009109Y002303D01*
X010609Y002303D02*
X010609Y002903D01*
X011609Y002903D02*
X011609Y002303D01*
X012609Y002303D02*
X012609Y002903D01*
X013109Y008303D02*
X013109Y008903D01*
X014109Y008903D02*
X014109Y008303D01*
X015109Y008303D02*
X015109Y008903D01*
X016109Y008903D02*
X016109Y008303D01*
X017109Y008303D02*
X017109Y008903D01*
X018109Y008903D02*
X018109Y008303D01*
X019109Y008303D02*
X019109Y008903D01*
X020109Y008903D02*
X020109Y008303D01*
X021109Y008303D02*
X021109Y008903D01*
X012109Y008903D02*
X012109Y008303D01*
X011109Y008303D02*
X011109Y008903D01*
X010109Y008903D02*
X010109Y008303D01*
X009109Y008303D02*
X009109Y008903D01*
X008109Y008903D02*
X008109Y008303D01*
X007109Y008303D02*
X007109Y008903D01*
X006109Y008903D02*
X006109Y008303D01*
X005109Y008303D02*
X005109Y008903D01*
X004109Y008903D02*
X004109Y008303D01*
X003109Y008303D02*
X003109Y008903D01*
X002109Y008903D02*
X002109Y008303D01*
X023109Y002903D02*
X023109Y002303D01*
X024109Y002303D02*
X024109Y002903D01*
X025109Y002903D02*
X025109Y002303D01*
D11*
X019109Y003843D02*
X019109Y004363D01*
X018109Y004363D02*
X018109Y003843D01*
X017109Y003843D02*
X017109Y004363D01*
X016109Y004363D02*
X016109Y003843D01*
X015109Y003843D02*
X015109Y004363D01*
X014109Y004363D02*
X014109Y003843D01*
X013109Y003843D02*
X013109Y004363D01*
X012109Y004363D02*
X012109Y003843D01*
X011109Y003843D02*
X011109Y004363D01*
X010109Y004363D02*
X010109Y003843D01*
X009109Y003843D02*
X009109Y004363D01*
X008109Y004363D02*
X008109Y003843D01*
X007109Y003843D02*
X007109Y004363D01*
X006109Y004363D02*
X006109Y003843D01*
X006109Y006843D02*
X006109Y007363D01*
X007109Y007363D02*
X007109Y006843D01*
X008109Y006843D02*
X008109Y007363D01*
X009109Y007363D02*
X009109Y006843D01*
X010109Y006843D02*
X010109Y007363D01*
X011109Y007363D02*
X011109Y006843D01*
X012109Y006843D02*
X012109Y007363D01*
X013109Y007363D02*
X013109Y006843D01*
X014109Y006843D02*
X014109Y007363D01*
X015109Y007363D02*
X015109Y006843D01*
X016109Y006843D02*
X016109Y007363D01*
X017109Y007363D02*
X017109Y006843D01*
X018109Y006843D02*
X018109Y007363D01*
X019109Y007363D02*
X019109Y006843D01*
D12*
X004109Y002603D03*
X005109Y002603D03*
X006109Y002603D03*
D13*
X002109Y004103D03*
D14*
X003109Y004103D03*
X004109Y004103D03*
X004109Y005103D03*
X003109Y005103D03*
X002109Y005103D03*
X020109Y002603D03*
D15*
X020069Y002643D01*
X020069Y004003D01*
X019269Y004803D01*
X014549Y004803D01*
X014149Y005203D01*
X014549Y005603D02*
X002629Y005603D01*
X002149Y005123D01*
X002109Y005103D01*
X001669Y004883D02*
X001669Y012563D01*
X011589Y012563D01*
X009509Y011763D02*
X013909Y011763D01*
X013189Y010483D02*
X013029Y010323D01*
X008549Y010323D01*
X007109Y008883D01*
X007109Y008603D01*
X007509Y007843D02*
X005829Y007843D01*
X005109Y008563D01*
X005109Y008603D01*
X004629Y008163D02*
X004629Y010883D01*
X018869Y010883D01*
X021109Y008643D01*
X021109Y008603D01*
X019109Y007123D02*
X019109Y007103D01*
X019109Y007123D02*
X018389Y007843D01*
X016949Y007843D01*
X016549Y008243D01*
X016549Y009603D01*
X011589Y009603D01*
X011109Y009123D01*
X011109Y008603D01*
X011669Y008243D02*
X011669Y009363D01*
X015349Y009363D01*
X016109Y008603D01*
X017109Y008603D02*
X017109Y009363D01*
X016629Y009843D01*
X010629Y009843D01*
X010629Y008163D01*
X010309Y007843D01*
X010149Y007843D01*
X010149Y007123D01*
X010109Y007103D01*
X009509Y006883D02*
X009509Y008563D01*
X009109Y008563D01*
X009109Y008603D01*
X008629Y008163D02*
X008629Y010083D01*
X016709Y010083D01*
X018149Y008643D01*
X018109Y008603D01*
X018109Y007103D02*
X018069Y007043D01*
X017189Y006163D01*
X013189Y006163D01*
X012549Y006803D01*
X012549Y008563D01*
X012149Y008563D01*
X012109Y008603D01*
X011669Y008243D02*
X011269Y007843D01*
X011109Y007843D01*
X011109Y007103D01*
X010469Y005923D02*
X009509Y006883D01*
X009109Y007103D02*
X009109Y007843D01*
X008949Y007843D01*
X008629Y008163D01*
X007509Y007843D02*
X007509Y006883D01*
X007989Y006403D01*
X009109Y006403D01*
X009509Y006003D01*
X010469Y005923D02*
X016309Y005923D01*
X016949Y005283D01*
X014949Y005203D02*
X014549Y005603D01*
X013989Y006403D02*
X013509Y006883D01*
X013509Y008563D01*
X013109Y008563D01*
X013109Y008603D01*
X014109Y008603D02*
X014869Y007843D01*
X015349Y007843D01*
X016069Y007123D01*
X016109Y007103D01*
X016469Y006403D02*
X017109Y007043D01*
X017109Y007103D01*
X016469Y006403D02*
X013989Y006403D01*
X012069Y004163D02*
X011429Y004803D01*
X004789Y004803D01*
X004149Y004163D01*
X004109Y004103D01*
X004149Y003603D02*
X002629Y003603D01*
X002149Y004083D01*
X002109Y004103D01*
X001909Y004643D02*
X001669Y004883D01*
X001909Y004643D02*
X002709Y004643D01*
X003109Y005043D01*
X003109Y005103D01*
X004549Y006163D02*
X002109Y008603D01*
X003109Y008563D02*
X003109Y008603D01*
X003109Y008563D02*
X005269Y006403D01*
X007109Y006403D01*
X007509Y006003D01*
X007029Y006003D02*
X006869Y006163D01*
X004549Y006163D01*
X006069Y007123D02*
X006109Y007103D01*
X006069Y007123D02*
X005349Y007843D01*
X004949Y007843D01*
X004629Y008163D01*
X012069Y004163D02*
X012109Y004103D01*
X013109Y004103D02*
X013109Y003523D01*
X013509Y003123D01*
X017349Y003123D01*
X018629Y001843D01*
X023349Y001843D01*
X024109Y002603D01*
X017349Y002643D02*
X012629Y002643D01*
X012609Y002603D01*
X012549Y002563D01*
X011829Y001843D01*
X011349Y001843D01*
X010629Y002563D01*
X010609Y002603D01*
X010869Y003363D02*
X011589Y002643D01*
X011609Y002603D01*
X010869Y003363D02*
X009829Y003363D01*
X009109Y002643D01*
X009109Y002603D01*
X009109Y002563D01*
X008389Y001843D01*
X005829Y001843D01*
X005109Y002563D01*
X005109Y002603D01*
X005109Y002643D01*
X004149Y003603D01*
X004789Y003443D02*
X008469Y003443D01*
X009109Y004083D01*
X009109Y004103D01*
X013589Y003523D02*
X013669Y003443D01*
X014469Y003443D01*
X015109Y004083D01*
X015109Y004103D01*
D16*
X013589Y003523D03*
X014149Y005203D03*
X014949Y005203D03*
X016949Y005283D03*
X017349Y002643D03*
X009509Y006003D03*
X007509Y006003D03*
X007029Y006003D03*
X004789Y003443D03*
X013189Y010483D03*
X013909Y011763D03*
X011589Y012563D03*
X009509Y011763D03*
M02*
