G75*
G70*
%OFA0B0*%
%FSLAX24Y24*%
%IPPOS*%
%LPD*%
%AMOC8*
5,1,8,0,0,1.08239X$1,22.5*
%
%ADD10C,0.0000*%
%ADD11R,0.0276X0.0354*%
%ADD12C,0.0600*%
%ADD13C,0.0520*%
%ADD14C,0.0740*%
%ADD15C,0.0600*%
%ADD16OC8,0.0600*%
%ADD17C,0.0100*%
%ADD18C,0.0400*%
D10*
X000109Y000103D02*
X000109Y014599D01*
X026979Y014599D01*
X026979Y000103D01*
X000109Y000103D01*
X023459Y008503D02*
X023461Y008553D01*
X023467Y008603D01*
X023477Y008653D01*
X023490Y008701D01*
X023507Y008749D01*
X023528Y008795D01*
X023552Y008839D01*
X023580Y008881D01*
X023611Y008921D01*
X023645Y008958D01*
X023682Y008993D01*
X023721Y009024D01*
X023762Y009053D01*
X023806Y009078D01*
X023852Y009100D01*
X023899Y009118D01*
X023947Y009132D01*
X023996Y009143D01*
X024046Y009150D01*
X024096Y009153D01*
X024147Y009152D01*
X024197Y009147D01*
X024247Y009138D01*
X024295Y009126D01*
X024343Y009109D01*
X024389Y009089D01*
X024434Y009066D01*
X024477Y009039D01*
X024517Y009009D01*
X024555Y008976D01*
X024590Y008940D01*
X024623Y008901D01*
X024652Y008860D01*
X024678Y008817D01*
X024701Y008772D01*
X024720Y008725D01*
X024735Y008677D01*
X024747Y008628D01*
X024755Y008578D01*
X024759Y008528D01*
X024759Y008478D01*
X024755Y008428D01*
X024747Y008378D01*
X024735Y008329D01*
X024720Y008281D01*
X024701Y008234D01*
X024678Y008189D01*
X024652Y008146D01*
X024623Y008105D01*
X024590Y008066D01*
X024555Y008030D01*
X024517Y007997D01*
X024477Y007967D01*
X024434Y007940D01*
X024389Y007917D01*
X024343Y007897D01*
X024295Y007880D01*
X024247Y007868D01*
X024197Y007859D01*
X024147Y007854D01*
X024096Y007853D01*
X024046Y007856D01*
X023996Y007863D01*
X023947Y007874D01*
X023899Y007888D01*
X023852Y007906D01*
X023806Y007928D01*
X023762Y007953D01*
X023721Y007982D01*
X023682Y008013D01*
X023645Y008048D01*
X023611Y008085D01*
X023580Y008125D01*
X023552Y008167D01*
X023528Y008211D01*
X023507Y008257D01*
X023490Y008305D01*
X023477Y008353D01*
X023467Y008403D01*
X023461Y008453D01*
X023459Y008503D01*
D11*
X018365Y002603D03*
X017853Y002603D03*
X016865Y002603D03*
X016353Y002603D03*
X015365Y002603D03*
X014853Y002603D03*
X002365Y002603D03*
X001853Y002603D03*
D12*
X008109Y002303D02*
X008109Y002903D01*
X009109Y002903D02*
X009109Y002303D01*
X010609Y002303D02*
X010609Y002903D01*
X011609Y002903D02*
X011609Y002303D01*
X012609Y002303D02*
X012609Y002903D01*
X013109Y008303D02*
X013109Y008903D01*
X014109Y008903D02*
X014109Y008303D01*
X015109Y008303D02*
X015109Y008903D01*
X016109Y008903D02*
X016109Y008303D01*
X017109Y008303D02*
X017109Y008903D01*
X018109Y008903D02*
X018109Y008303D01*
X019109Y008303D02*
X019109Y008903D01*
X020109Y008903D02*
X020109Y008303D01*
X021109Y008303D02*
X021109Y008903D01*
X012109Y008903D02*
X012109Y008303D01*
X011109Y008303D02*
X011109Y008903D01*
X010109Y008903D02*
X010109Y008303D01*
X009109Y008303D02*
X009109Y008903D01*
X008109Y008903D02*
X008109Y008303D01*
X007109Y008303D02*
X007109Y008903D01*
X006109Y008903D02*
X006109Y008303D01*
X005109Y008303D02*
X005109Y008903D01*
X004109Y008903D02*
X004109Y008303D01*
X003109Y008303D02*
X003109Y008903D01*
X002109Y008903D02*
X002109Y008303D01*
X023109Y002903D02*
X023109Y002303D01*
X024109Y002303D02*
X024109Y002903D01*
X025109Y002903D02*
X025109Y002303D01*
D13*
X019109Y003843D02*
X019109Y004363D01*
X018109Y004363D02*
X018109Y003843D01*
X017109Y003843D02*
X017109Y004363D01*
X016109Y004363D02*
X016109Y003843D01*
X015109Y003843D02*
X015109Y004363D01*
X014109Y004363D02*
X014109Y003843D01*
X013109Y003843D02*
X013109Y004363D01*
X012109Y004363D02*
X012109Y003843D01*
X011109Y003843D02*
X011109Y004363D01*
X010109Y004363D02*
X010109Y003843D01*
X009109Y003843D02*
X009109Y004363D01*
X008109Y004363D02*
X008109Y003843D01*
X007109Y003843D02*
X007109Y004363D01*
X006109Y004363D02*
X006109Y003843D01*
X006109Y006843D02*
X006109Y007363D01*
X007109Y007363D02*
X007109Y006843D01*
X008109Y006843D02*
X008109Y007363D01*
X009109Y007363D02*
X009109Y006843D01*
X010109Y006843D02*
X010109Y007363D01*
X011109Y007363D02*
X011109Y006843D01*
X012109Y006843D02*
X012109Y007363D01*
X013109Y007363D02*
X013109Y006843D01*
X014109Y006843D02*
X014109Y007363D01*
X015109Y007363D02*
X015109Y006843D01*
X016109Y006843D02*
X016109Y007363D01*
X017109Y007363D02*
X017109Y006843D01*
X018109Y006843D02*
X018109Y007363D01*
X019109Y007363D02*
X019109Y006843D01*
D14*
X006109Y002603D03*
X005109Y002603D03*
X004109Y002603D03*
D15*
X002109Y004103D03*
D16*
X003109Y004103D03*
X004109Y004103D03*
X004109Y005103D03*
X003109Y005103D03*
X002109Y005103D03*
X020109Y002603D03*
D17*
X019669Y002643D02*
X019669Y002803D01*
X020229Y003363D01*
X024069Y003363D01*
X024069Y002643D01*
X024109Y002603D01*
X024389Y001843D02*
X025109Y002563D01*
X025109Y002603D01*
X024389Y001843D02*
X016309Y001843D01*
X016309Y002243D01*
X016309Y002563D01*
X016353Y002603D01*
X016309Y002243D02*
X015189Y002243D01*
X014869Y002563D01*
X014853Y002603D01*
X014789Y002643D01*
X014549Y002883D01*
X014549Y006483D01*
X014149Y006883D01*
X014149Y007043D01*
X014109Y007103D01*
X014069Y007123D01*
X014069Y007763D01*
X011909Y007763D01*
X011669Y007523D01*
X011669Y006403D01*
X009429Y006403D01*
X008709Y005683D01*
X008709Y003203D01*
X008109Y002603D01*
X009269Y001843D02*
X006629Y001843D01*
X006629Y008083D01*
X006109Y008603D01*
X007109Y007123D02*
X007669Y007683D01*
X007669Y011123D01*
X009989Y013443D01*
X020069Y013443D01*
X020069Y008643D01*
X020109Y008603D01*
X019109Y008603D02*
X019109Y013203D01*
X010069Y013203D01*
X009909Y013043D01*
X009909Y011683D01*
X008629Y010403D01*
X008629Y007603D01*
X008149Y007123D01*
X008109Y007103D01*
X007109Y007103D02*
X007109Y007123D01*
X007029Y006003D02*
X007029Y004243D01*
X007109Y004163D01*
X007109Y004103D01*
X007509Y004723D02*
X008069Y004163D01*
X008109Y004103D01*
X007509Y004723D02*
X007509Y006003D01*
X009509Y006003D02*
X009509Y004723D01*
X010069Y004163D01*
X010109Y004103D01*
X011109Y004083D02*
X011109Y004103D01*
X011109Y004083D02*
X009589Y002563D01*
X009589Y002163D01*
X009269Y001843D01*
X011609Y002603D02*
X011669Y002643D01*
X013109Y004083D01*
X013109Y004103D01*
X013109Y006083D01*
X012149Y007043D01*
X012109Y007103D01*
X013109Y007103D02*
X013109Y007043D01*
X014149Y006003D01*
X014149Y005203D01*
X014949Y005203D02*
X015509Y004643D01*
X015509Y002723D01*
X015429Y002643D01*
X015365Y002603D01*
X013989Y002723D02*
X012629Y001363D01*
X004149Y001363D01*
X004149Y002563D01*
X004109Y002603D01*
X003509Y003203D02*
X002549Y002243D01*
X001509Y002243D01*
X001509Y006003D01*
X004109Y008603D01*
X008109Y008603D02*
X008149Y008643D01*
X008149Y010403D01*
X009509Y011763D01*
X011589Y012563D02*
X015109Y009043D01*
X015109Y008603D01*
X015109Y007103D01*
X014549Y006803D02*
X014549Y009123D01*
X013189Y010483D01*
X013909Y011763D02*
X016549Y009123D01*
X016549Y004723D01*
X017109Y004163D01*
X017109Y004103D01*
X018069Y004163D02*
X018109Y004103D01*
X018069Y004163D02*
X016949Y005283D01*
X017589Y005683D02*
X017589Y009763D01*
X014389Y012963D01*
X010149Y012963D01*
X010149Y008643D01*
X010109Y008603D01*
X011669Y006403D02*
X011669Y004563D01*
X012069Y004163D01*
X012109Y004103D01*
X013109Y003043D02*
X013589Y003523D01*
X013109Y003043D02*
X013109Y002163D01*
X012549Y001603D01*
X006149Y001603D01*
X006149Y002563D01*
X006109Y002603D01*
X004789Y003443D02*
X003509Y003443D01*
X003509Y003203D01*
X003829Y004083D02*
X002389Y002643D01*
X002365Y002603D01*
X002069Y002803D02*
X001909Y002643D01*
X001853Y002603D01*
X002069Y002803D02*
X002069Y004083D01*
X002109Y004103D01*
X002109Y005103D02*
X002149Y005123D01*
X002149Y005683D01*
X004549Y005683D01*
X006069Y004163D01*
X006109Y004103D01*
X004109Y004103D02*
X004069Y004083D01*
X003829Y004083D01*
X013989Y004003D02*
X013989Y002723D01*
X013989Y004003D02*
X014069Y004083D01*
X014109Y004103D01*
X015749Y004483D02*
X015749Y005603D01*
X014549Y006803D01*
X017589Y005683D02*
X019109Y004163D01*
X019109Y004103D01*
X019669Y002643D02*
X018389Y002643D01*
X018365Y002603D01*
X018309Y002563D01*
X018309Y002243D01*
X017189Y002243D01*
X016869Y002563D01*
X016865Y002603D01*
X017349Y002643D02*
X017829Y002643D01*
X017853Y002603D01*
X016109Y004103D02*
X016069Y004163D01*
X015749Y004483D01*
D18*
X014949Y005203D03*
X014149Y005203D03*
X016949Y005283D03*
X013589Y003523D03*
X017349Y002643D03*
X009509Y006003D03*
X007509Y006003D03*
X007029Y006003D03*
X004789Y003443D03*
X013189Y010483D03*
X013909Y011763D03*
X011589Y012563D03*
X009509Y011763D03*
M02*
