%
M48
M72
T01C0.0240
T02C0.0315
T03C0.0320
T04C0.0400
T05C0.1300
%
T01
X4789Y3443
X7029Y6003
X7509Y6003
X9509Y6003
X14149Y5203
X14949Y5203
X16949Y5283
X13589Y3523
X17349Y2643
X13189Y10483
X13909Y11763
X11589Y12563
X9509Y11763
T02
X4109Y2603
X5109Y2603
X6109Y2603
T03
X6109Y4103
X7109Y4103
X8109Y4103
X9109Y4103
X10109Y4103
X11109Y4103
X12109Y4103
X13109Y4103
X14109Y4103
X15109Y4103
X16109Y4103
X17109Y4103
X18109Y4103
X19109Y4103
X19109Y7103
X18109Y7103
X17109Y7103
X16109Y7103
X15109Y7103
X14109Y7103
X13109Y7103
X12109Y7103
X11109Y7103
X10109Y7103
X9109Y7103
X8109Y7103
X7109Y7103
X6109Y7103
T04
X6109Y8603
X7109Y8603
X8109Y8603
X9109Y8603
X10109Y8603
X11109Y8603
X12109Y8603
X13109Y8603
X14109Y8603
X15109Y8603
X16109Y8603
X17109Y8603
X18109Y8603
X19109Y8603
X20109Y8603
X21109Y8603
X20109Y2603
X23109Y2603
X24109Y2603
X25109Y2603
X12609Y2603
X11609Y2603
X10609Y2603
X9109Y2603
X8109Y2603
X4109Y4103
X3109Y4103
X2109Y4103
X2109Y5103
X3109Y5103
X4109Y5103
X4109Y8603
X5109Y8603
X3109Y8603
X2109Y8603
T05
X24109Y8503
M30
